<mxfile host="app.diagrams.net" modified="2023-09-23T08:02:18.810Z" agent="Mozilla/5.0 (Windows NT 10.0; Win64; x64) AppleWebKit/537.36 (KHTML, like Gecko) Chrome/117.0.0.0 Safari/537.36 Edg/117.0.2045.36" version="21.7.4" etag="lZJCgfplHQhKt8M4s7Bf" type="github">
  <diagram name="第 1 页" id="fjjLd8daoIHMU81Ogg5u">
    <mxGraphModel>
      <root>
        <mxCell id="0" />
        <mxCell id="1" parent="0" />
      </root>
    </mxGraphModel>
  </diagram>
</mxfile>
